G04 #@! TF.GenerationSoftware,KiCad,Pcbnew,10.0.1*
G04 #@! TF.CreationDate,2026-04-30T17:49:07-04:00*
G04 #@! TF.ProjectId,SAMD51 dev board,53414d44-3531-4206-9465-7620626f6172,rev?*
G04 #@! TF.SameCoordinates,Original*
G04 #@! TF.FileFunction,Paste,Top*
G04 #@! TF.FilePolarity,Positive*
%FSLAX46Y46*%
G04 Gerber Fmt 4.6, Leading zero omitted, Abs format (unit mm)*
G04 Created by KiCad (PCBNEW 10.0.1) date 2026-04-30 17:49:07*
%MOMM*%
%LPD*%
G01*
G04 APERTURE LIST*
G04 Aperture macros list*
%AMRoundRect*
0 Rectangle with rounded corners*
0 $1 Rounding radius*
0 $2 $3 $4 $5 $6 $7 $8 $9 X,Y pos of 4 corners*
0 Add a 4 corners polygon primitive as box body*
4,1,4,$2,$3,$4,$5,$6,$7,$8,$9,$2,$3,0*
0 Add four circle primitives for the rounded corners*
1,1,$1+$1,$2,$3*
1,1,$1+$1,$4,$5*
1,1,$1+$1,$6,$7*
1,1,$1+$1,$8,$9*
0 Add four rect primitives between the rounded corners*
20,1,$1+$1,$2,$3,$4,$5,0*
20,1,$1+$1,$4,$5,$6,$7,0*
20,1,$1+$1,$6,$7,$8,$9,0*
20,1,$1+$1,$8,$9,$2,$3,0*%
G04 Aperture macros list end*
%ADD10R,1.900000X1.750000*%
%ADD11R,0.750000X0.300000*%
%ADD12RoundRect,0.067500X0.067500X-0.067500X0.067500X0.067500X-0.067500X0.067500X-0.067500X-0.067500X0*%
%ADD13RoundRect,0.067500X-0.067500X-0.067500X0.067500X-0.067500X0.067500X0.067500X-0.067500X0.067500X0*%
%ADD14RoundRect,0.079500X0.079500X0.100500X-0.079500X0.100500X-0.079500X-0.100500X0.079500X-0.100500X0*%
%ADD15RoundRect,0.140000X-0.170000X0.140000X-0.170000X-0.140000X0.170000X-0.140000X0.170000X0.140000X0*%
%ADD16RoundRect,0.140000X0.140000X0.170000X-0.140000X0.170000X-0.140000X-0.170000X0.140000X-0.170000X0*%
%ADD17R,0.736600X2.794000*%
%ADD18RoundRect,0.140000X-0.140000X-0.170000X0.140000X-0.170000X0.140000X0.170000X-0.140000X0.170000X0*%
%ADD19RoundRect,0.135000X0.185000X-0.135000X0.185000X0.135000X-0.185000X0.135000X-0.185000X-0.135000X0*%
%ADD20RoundRect,0.135000X-0.185000X0.135000X-0.185000X-0.135000X0.185000X-0.135000X0.185000X0.135000X0*%
%ADD21RoundRect,0.140000X0.170000X-0.140000X0.170000X0.140000X-0.170000X0.140000X-0.170000X-0.140000X0*%
%ADD22RoundRect,0.147500X0.172500X-0.147500X0.172500X0.147500X-0.172500X0.147500X-0.172500X-0.147500X0*%
%ADD23R,1.168400X0.177800*%
%ADD24R,0.177800X1.168400*%
%ADD25RoundRect,0.147500X-0.147500X-0.172500X0.147500X-0.172500X0.147500X0.172500X-0.147500X0.172500X0*%
%ADD26R,0.584200X1.143000*%
%ADD27R,0.304800X1.143000*%
G04 APERTURE END LIST*
D10*
X143930000Y-144828095D03*
D11*
X142430000Y-145578095D03*
X142430000Y-145078095D03*
X142430000Y-144578095D03*
X142430000Y-144078095D03*
X145430000Y-144078095D03*
X145430000Y-144578095D03*
X145430000Y-145078095D03*
X145430000Y-145578095D03*
D12*
X150255000Y-147713095D03*
X150255000Y-147163095D03*
D13*
X155880000Y-148188095D03*
X156430000Y-148188095D03*
X155880000Y-145913095D03*
X156430000Y-145913095D03*
D12*
X142130000Y-147538095D03*
X142130000Y-146988095D03*
D14*
X147505000Y-146788095D03*
X146815000Y-146788095D03*
X150375000Y-141788095D03*
X149685000Y-141788095D03*
D15*
X152705000Y-139608095D03*
X152705000Y-140568095D03*
D11*
X148105000Y-140788095D03*
X148105000Y-140288095D03*
X148105000Y-139788095D03*
X148105000Y-139288095D03*
X145105000Y-139288095D03*
X145105000Y-139788095D03*
X145105000Y-140288095D03*
X145105000Y-140788095D03*
D10*
X146605000Y-140038095D03*
D15*
X150880000Y-139583095D03*
X150880000Y-140543095D03*
D16*
X148655000Y-132738095D03*
X147695000Y-132738095D03*
X148615000Y-130438095D03*
X147655000Y-130438095D03*
D17*
X157170000Y-138500000D03*
X157170000Y-134436000D03*
X158440000Y-138500000D03*
X158440000Y-134436000D03*
X159710000Y-138500000D03*
X159710000Y-134436000D03*
X160980000Y-134436000D03*
X162250000Y-138500000D03*
X162250000Y-134436000D03*
D18*
X161420000Y-72400000D03*
X162380000Y-72400000D03*
D19*
X187490000Y-65000000D03*
X187490000Y-63980000D03*
D20*
X109688095Y-65430000D03*
X109688095Y-66450000D03*
D19*
X156000000Y-154500000D03*
X156000000Y-153480000D03*
D15*
X108923095Y-40760000D03*
X108923095Y-41720000D03*
D21*
X108923095Y-38200000D03*
X108923095Y-37240000D03*
D19*
X161010000Y-154500000D03*
X161010000Y-153480000D03*
D22*
X160990000Y-151965000D03*
X160990000Y-150995000D03*
D15*
X150080000Y-57999695D03*
X150080000Y-58959695D03*
D21*
X150000000Y-55960000D03*
X150000000Y-55000000D03*
D22*
X159330000Y-50973095D03*
X159330000Y-50003095D03*
D19*
X163500000Y-154480000D03*
X163500000Y-153460000D03*
D16*
X165280000Y-72400000D03*
X164320000Y-72400000D03*
D19*
X187500000Y-69020000D03*
X187500000Y-68000000D03*
D23*
X152409200Y-55438895D03*
X152409200Y-55845295D03*
X152409200Y-56251695D03*
X152409200Y-56658095D03*
X152409200Y-57064495D03*
X152409200Y-57470895D03*
X152409200Y-57877295D03*
X152409200Y-58283695D03*
X152409200Y-58690095D03*
X152409200Y-59096495D03*
X152409200Y-59502895D03*
X152409200Y-59909295D03*
X152409200Y-60315695D03*
X152409200Y-60722095D03*
X152409200Y-61128495D03*
X152409200Y-61534895D03*
X152409200Y-61941295D03*
X152409200Y-62347695D03*
X152409200Y-62754095D03*
X152409200Y-63160495D03*
X152409200Y-63566895D03*
X152409200Y-63973295D03*
X152409200Y-64379695D03*
X152409200Y-64786095D03*
X152409200Y-65192495D03*
X152409200Y-65598895D03*
X152409200Y-66005295D03*
X152409200Y-66411695D03*
X152409200Y-66818095D03*
X152409200Y-67224495D03*
X152409200Y-67630895D03*
X152409200Y-68037295D03*
D24*
X153780800Y-69408895D03*
X154187200Y-69408895D03*
X154593600Y-69408895D03*
X155000000Y-69408895D03*
X155406400Y-69408895D03*
X155812800Y-69408895D03*
X156219200Y-69408895D03*
X156625600Y-69408895D03*
X157032000Y-69408895D03*
X157438400Y-69408895D03*
X157844800Y-69408895D03*
X158251200Y-69408895D03*
X158657600Y-69408895D03*
X159064000Y-69408895D03*
X159470400Y-69408895D03*
X159876800Y-69408895D03*
X160283200Y-69408895D03*
X160689600Y-69408895D03*
X161096000Y-69408895D03*
X161502400Y-69408895D03*
X161908800Y-69408895D03*
X162315200Y-69408895D03*
X162721600Y-69408895D03*
X163128000Y-69408895D03*
X163534400Y-69408895D03*
X163940800Y-69408895D03*
X164347200Y-69408895D03*
X164753600Y-69408895D03*
X165160000Y-69408895D03*
X165566400Y-69408895D03*
X165972800Y-69408895D03*
X166379200Y-69408895D03*
D23*
X167750800Y-68037295D03*
X167750800Y-67630895D03*
X167750800Y-67224495D03*
X167750800Y-66818095D03*
X167750800Y-66411695D03*
X167750800Y-66005295D03*
X167750800Y-65598895D03*
X167750800Y-65192495D03*
X167750800Y-64786095D03*
X167750800Y-64379695D03*
X167750800Y-63973295D03*
X167750800Y-63566895D03*
X167750800Y-63160495D03*
X167750800Y-62754095D03*
X167750800Y-62347695D03*
X167750800Y-61941295D03*
X167750800Y-61534895D03*
X167750800Y-61128495D03*
X167750800Y-60722095D03*
X167750800Y-60315695D03*
X167750800Y-59909295D03*
X167750800Y-59502895D03*
X167750800Y-59096495D03*
X167750800Y-58690095D03*
X167750800Y-58283695D03*
X167750800Y-57877295D03*
X167750800Y-57470895D03*
X167750800Y-57064495D03*
X167750800Y-56658095D03*
X167750800Y-56251695D03*
X167750800Y-55845295D03*
X167750800Y-55438895D03*
D24*
X166379200Y-54067295D03*
X165972800Y-54067295D03*
X165566400Y-54067295D03*
X165160000Y-54067295D03*
X164753600Y-54067295D03*
X164347200Y-54067295D03*
X163940800Y-54067295D03*
X163534400Y-54067295D03*
X163128000Y-54067295D03*
X162721600Y-54067295D03*
X162315200Y-54067295D03*
X161908800Y-54067295D03*
X161502400Y-54067295D03*
X161096000Y-54067295D03*
X160689600Y-54067295D03*
X160283200Y-54067295D03*
X159876800Y-54067295D03*
X159470400Y-54067295D03*
X159064000Y-54067295D03*
X158657600Y-54067295D03*
X158251200Y-54067295D03*
X157844800Y-54067295D03*
X157438400Y-54067295D03*
X157032000Y-54067295D03*
X156625600Y-54067295D03*
X156219200Y-54067295D03*
X155812800Y-54067295D03*
X155406400Y-54067295D03*
X155000000Y-54067295D03*
X154593600Y-54067295D03*
X154187200Y-54067295D03*
X153780800Y-54067295D03*
D19*
X109688095Y-61950000D03*
X109688095Y-60930000D03*
D18*
X159750000Y-52273095D03*
X160710000Y-52273095D03*
D19*
X183000000Y-39020000D03*
X183000000Y-38000000D03*
X186000000Y-39020000D03*
X186000000Y-38000000D03*
D22*
X158500000Y-151975000D03*
X158500000Y-151005000D03*
D16*
X159180000Y-72400000D03*
X158220000Y-72400000D03*
D22*
X163500000Y-151965000D03*
X163500000Y-150995000D03*
D25*
X148030000Y-57000000D03*
X149000000Y-57000000D03*
D15*
X189000000Y-42000000D03*
X189000000Y-42960000D03*
D16*
X158430305Y-52253095D03*
X157470305Y-52253095D03*
D19*
X158500000Y-154500000D03*
X158500000Y-153480000D03*
D22*
X156000000Y-151975000D03*
X156000000Y-151005000D03*
D26*
X142794999Y-150063096D03*
X143594998Y-150063096D03*
D27*
X144245000Y-150063096D03*
X144744999Y-150063096D03*
X145244998Y-150063096D03*
X145744999Y-150063096D03*
X146244999Y-150063096D03*
X146745000Y-150063096D03*
X147244999Y-150063096D03*
X147744998Y-150063096D03*
D26*
X148395000Y-150063096D03*
X149194999Y-150063096D03*
D15*
X148955000Y-144838095D03*
X148955000Y-145798095D03*
M02*
