M48
; DRILL file KiCad 10.0.1 date 2026-04-30T17:49:10
; FORMAT={3:3/ absolute / metric / suppress leading zeros}
; #@! TF.CreationDate,2026-04-30T17:49:10-04:00
; #@! TF.GenerationSoftware,Kicad,Pcbnew,10.0.1
; #@! TF.FileFunction,Plated,1,4,PTH
FMAT,2
METRIC,TZ
; #@! TA.AperFunction,Plated,PTH,ViaDrill
T1C0.300
; #@! TA.AperFunction,Plated,PTH,ComponentDrill
T2C1.000
%
G90
G05
T1
X104500Y-94900
X105500Y-92200
X106000Y-93200
X106900Y-71800
X107700Y-74400
X107800Y-47600
X107830Y-62988
X108080Y-41988
X109000Y-36200
X109688Y-60112
X109700Y-67400
X112280Y-126538
X114300Y-49100
X114400Y-51440
X114900Y-136100
X115180Y-127755
X116800Y-77000
X117000Y-81980
X117340Y-79440
X118200Y-55800
X118745Y-56500
X119035Y-41509
X119145Y-58238
X119465Y-59000
X119580Y-40238
X119785Y-64200
X120245Y-65100
X120565Y-65800
X120754Y-46746
X120780Y-41688
X120945Y-66570
X121345Y-75300
X121745Y-76950
X121780Y-41138
X121795Y-47291
X122145Y-78600
X122545Y-79550
X122945Y-80450
X123030Y-43338
X123080Y-47611
X123345Y-81250
X123745Y-82600
X124145Y-84000
X124380Y-42488
X124448Y-47931
X124545Y-85300
X124580Y-52430
X124946Y-48518
X125080Y-63410
X125090Y-86800
X125580Y-45058
X125830Y-58455
X126900Y-59900
X128300Y-60700
X128580Y-46201
X128635Y-109738
X129415Y-61500
X129430Y-44188
X129580Y-62320
X130375Y-94738
X130875Y-95830
X131080Y-88238
X131530Y-97275
X131830Y-63090
X132075Y-101038
X132505Y-45881
X132830Y-99788
X133035Y-79190
X133375Y-103450
X133580Y-72488
X133580Y-98738
X134130Y-102355
X134495Y-70800
X134830Y-75488
X135950Y-68050
X136080Y-91238
X136580Y-89238
X137035Y-66800
X138080Y-71954
X138130Y-69270
X139575Y-66300
X139685Y-112488
X140229Y-41161
X140630Y-145038
X141480Y-41688
X142030Y-42538
X142430Y-55041
X142480Y-118088
X142550Y-45058
X142580Y-44188
X142630Y-43388
X143030Y-117138
X143460Y-57193
X143555Y-140188
X143580Y-59920
X143580Y-148363
X143683Y-51885
X144045Y-51134
X144226Y-56873
X144330Y-60738
X144387Y-50444
X144495Y-115588
X144630Y-137013
X144805Y-143138
X144830Y-53988
X145040Y-116460
X145080Y-49988
X145280Y-147538
X146060Y-45238
X146130Y-133838
X146445Y-83238
X146580Y-52988
X146755Y-148813
X146765Y-63090
X146860Y-131903
X147105Y-144758
X147330Y-62045
X147700Y-64500
X147755Y-114988
X147830Y-54488
X148500Y-61600
X148630Y-148438
X149080Y-40738
X149127Y-64112
X149200Y-61100
X149305Y-139968
X149330Y-53295
X149500Y-59000
X149700Y-60200
X150030Y-145738
X150070Y-54307
X150338Y-41211
X150366Y-64524
X150580Y-60454
X150830Y-61238
X150891Y-41748
X150905Y-144338
X151062Y-59277
X151080Y-96238
X151180Y-33098
X151208Y-58521
X151330Y-85988
X151330Y-131338
X151783Y-53295
X152053Y-95159
X152073Y-54711
X152080Y-68738
X152146Y-73044
X152255Y-147438
X152300Y-42300
X152584Y-55286
X152780Y-137713
X152830Y-53238
X153001Y-47931
X153080Y-81238
X153463Y-56249
X153481Y-67103
X153500Y-59700
X153500Y-61600
X153500Y-65100
X153652Y-76881
X153679Y-43148
X153830Y-57943
X153900Y-47945
X154080Y-56738
X154326Y-75300
X154400Y-65100
X154455Y-47400
X154455Y-148163
X154480Y-139313
X154580Y-45283
X154580Y-113388
X154619Y-57447
X154800Y-43900
X154861Y-46746
X155000Y-78645
X155700Y-78100
X155813Y-68471
X155916Y-155584
X156008Y-56376
X156072Y-83222
X156080Y-57988
X156080Y-73988
X156200Y-72500
X156300Y-44500
X156300Y-47238
X156487Y-64738
X156555Y-113783
X156850Y-70800
X156893Y-67945
X157100Y-73238
X157100Y-131600
X157193Y-141426
X157400Y-45200
X157400Y-72500
X157500Y-66800
X157580Y-148163
X157630Y-146263
X158080Y-57238
X158159Y-50378
X158200Y-66300
X158400Y-132100
X158500Y-155500
X158579Y-81238
X158580Y-150238
X158796Y-66988
X159080Y-55488
X159255Y-144688
X159332Y-45986
X159470Y-64830
X159520Y-70801
X159580Y-57738
X159877Y-46693
X160015Y-65488
X160310Y-55738
X160397Y-71986
X160580Y-47238
X160580Y-57238
X160580Y-59238
X160580Y-67488
X160710Y-50358
X160974Y-150238
X161000Y-155500
X161005Y-138488
X161069Y-73731
X161080Y-55738
X161400Y-73000
X161580Y-63238
X161770Y-68158
X162080Y-74738
X162140Y-88119
X162142Y-73800
X162240Y-66488
X162330Y-71488
X162380Y-149438
X162500Y-45200
X162785Y-67238
X162830Y-56488
X162999Y-44481
X163080Y-79738
X163330Y-62988
X163434Y-70821
X163436Y-43847
X163500Y-155500
X163900Y-43200
X164010Y-78819
X164035Y-56693
X164080Y-55738
X164320Y-72978
X164429Y-59505
X164552Y-61335
X164580Y-68342
X164580Y-86238
X164580Y-121288
X164615Y-42754
X164624Y-55194
X164810Y-74245
X165002Y-70458
X165021Y-42100
X165100Y-80600
X165300Y-73100
X165330Y-63693
X165428Y-41446
X165580Y-61238
X165645Y-79823
X166080Y-91238
X166147Y-41172
X166300Y-66800
X166476Y-68342
X166518Y-70458
X166600Y-59500
X166765Y-89238
X166820Y-64786
X166945Y-112708
X167047Y-78708
X167830Y-68738
X168080Y-75655
X168123Y-54715
X168155Y-72555
X168600Y-84000
X168700Y-68618
X169080Y-99238
X169100Y-66100
X169146Y-67510
X169245Y-82525
X169353Y-61147
X169380Y-130263
X169406Y-40316
X169530Y-121988
X169535Y-48555
X169771Y-111488
X169900Y-86800
X170080Y-52238
X170125Y-39738
X170350Y-112133
X170400Y-85300
X170649Y-122427
X170710Y-59955
X171055Y-75422
X171130Y-95188
X171131Y-56120
X171445Y-77555
X171445Y-81200
X171455Y-130263
X171580Y-50155
X171580Y-86488
X171780Y-122038
X172080Y-51245
X172125Y-46943
X172400Y-95238
X172580Y-104238
X172835Y-51900
X173080Y-50700
X173080Y-59355
X173080Y-106738
X173700Y-49723
X173700Y-127068
X173845Y-70200
X174230Y-49138
X174245Y-64800
X174300Y-69579
X174500Y-122988
X175087Y-92745
X175136Y-65794
X175330Y-42488
X175330Y-62988
X176042Y-71700
X176080Y-100715
X176255Y-59101
X176575Y-66500
X177000Y-97825
X177080Y-98738
X177080Y-119488
X177100Y-68600
X177291Y-86571
X177700Y-66800
X177800Y-70700
X178045Y-61135
X178080Y-101738
X178668Y-60683
X178900Y-59738
X178996Y-144404
X179055Y-73655
X179080Y-128238
X180000Y-94238
X180086Y-99407
X180105Y-69738
X180300Y-68030
X180715Y-68679
X180731Y-88822
X180931Y-56089
X181045Y-55203
X181260Y-69808
X181830Y-55960
X182080Y-64238
X182080Y-120488
X182555Y-130263
X182617Y-47525
X182826Y-39983
X183100Y-62718
X183491Y-58327
X183730Y-113263
X184036Y-57783
X184205Y-110000
X184580Y-57238
X185080Y-46488
X185124Y-56694
X186074Y-40048
X186581Y-64119
X187480Y-69888
X187490Y-65990
X187655Y-67168
X187690Y-72400
X188325Y-96547
X188360Y-77738
X188500Y-37950
X189080Y-74693
X190080Y-92738
X190125Y-99738
X190150Y-150350
X190330Y-46738
X190357Y-132014
X190500Y-125000
X190715Y-84888
X195500Y-125000
X196045Y-75238
X196930Y-101838
X197580Y-129238
X197580Y-131738
X197626Y-36726
X197626Y-70855
X197830Y-32900
X198080Y-133238
X198145Y-38738
X198960Y-69238
X199580Y-44738
X199580Y-76238
X200580Y-49738
T2
X110960Y-136125
X110960Y-138665
X110960Y-141205
X110960Y-143745
X110960Y-146285
X110960Y-148825
X110960Y-151365
X110960Y-153905
X111230Y-89655
X111230Y-92195
X111230Y-94735
X111230Y-97275
X111230Y-99815
X111230Y-102355
X111230Y-104895
X111230Y-107435
X111230Y-109975
X111230Y-112515
X111230Y-115055
X111230Y-117595
X111230Y-120135
X111230Y-122675
X111230Y-125215
X111230Y-127755
X112185Y-36200
X112185Y-38740
X112185Y-41280
X112185Y-43820
X112185Y-46360
X112185Y-48900
X112185Y-51440
X112475Y-59120
X112475Y-61660
X112475Y-64200
X112475Y-66740
X112475Y-69280
X112475Y-71820
X112475Y-74360
X112475Y-76900
X112475Y-79440
X112475Y-81980
X113500Y-136125
X113500Y-138665
X113500Y-141205
X113500Y-143745
X113500Y-146285
X113500Y-148825
X113500Y-151365
X113500Y-153905
X113770Y-89655
X113770Y-92195
X113770Y-94735
X113770Y-97275
X113770Y-99815
X113770Y-102355
X113770Y-104895
X113770Y-107435
X113770Y-109975
X113770Y-112515
X113770Y-115055
X113770Y-117595
X113770Y-120135
X113770Y-122675
X113770Y-125215
X113770Y-127755
X121795Y-35635
X121795Y-38175
X121830Y-115158
X121830Y-117698
X121830Y-120238
X121830Y-122778
X121830Y-125318
X121830Y-127858
X124335Y-35635
X124335Y-38175
X126875Y-35635
X126875Y-38175
X129415Y-35635
X129415Y-38175
X130450Y-139475
X130450Y-142015
X130450Y-144555
X130450Y-147095
X130450Y-149635
X130450Y-152175
X131955Y-35635
X131955Y-38175
X132990Y-139475
X132990Y-142015
X132990Y-144555
X132990Y-147095
X132990Y-149635
X132990Y-152175
X134495Y-35635
X134495Y-38175
X137035Y-35635
X137035Y-38175
X139575Y-35635
X139575Y-38175
X142115Y-35635
X142115Y-38175
X144655Y-35635
X144655Y-38175
X147195Y-35635
X147195Y-38175
X149735Y-35635
X149735Y-38175
X152275Y-35635
X152275Y-38175
X154815Y-35635
X154815Y-38175
X157355Y-35635
X157355Y-38175
X159895Y-35635
X159895Y-38175
X165040Y-34738
X167580Y-34738
X170120Y-34738
X172660Y-34738
X173000Y-135380
X173000Y-137920
X173000Y-140460
X173000Y-143000
X173000Y-145540
X173000Y-148080
X173000Y-150620
X173000Y-153160
X175200Y-34738
X175540Y-135380
X175540Y-137920
X175540Y-140460
X175540Y-143000
X175540Y-145540
X175540Y-148080
X175540Y-150620
X175540Y-153160
X183460Y-34238
X183500Y-86570
X183500Y-89110
X183500Y-91650
X183500Y-94190
X183500Y-96730
X183500Y-99270
X183500Y-101810
X183500Y-104350
X183500Y-106890
X183500Y-109430
X186000Y-34238
X188540Y-34238
X191025Y-63985
X191025Y-66525
X191025Y-69065
X191025Y-71605
X191025Y-74145
X191025Y-76685
X191025Y-79225
X191025Y-81765
X191080Y-34238
X191500Y-40720
X191500Y-43260
X191500Y-45800
X191500Y-48340
X191500Y-50880
X191500Y-53420
X191500Y-55960
X191730Y-115560
X191730Y-118100
X191730Y-120640
X191730Y-123180
X191730Y-125720
X191730Y-128260
X191730Y-130800
X191730Y-133340
X191730Y-135880
X191730Y-138420
X191730Y-140960
X191730Y-143500
X191730Y-146040
X191730Y-148580
X191730Y-151120
X191730Y-153660
X193620Y-34238
X194025Y-107750
X194025Y-110290
X194270Y-115560
X194270Y-118100
X194270Y-120640
X194270Y-123180
X194270Y-125720
X194270Y-128260
X194270Y-130800
X194270Y-133340
X194270Y-135880
X194270Y-138420
X194270Y-140960
X194270Y-143500
X194270Y-146040
X194270Y-148580
X194270Y-151120
X194270Y-153660
X194580Y-90340
X194580Y-92880
X194580Y-95420
X194580Y-97960
X194580Y-100500
X194580Y-103040
X196160Y-34238
M30
